<svg width="9" height="18" viewBox="0 0 9 18" fill="none" xmlns="http://www.w3.org/2000/svg">
<path d="M7.50463 17.9999C7.31257 18.0006 7.12281 17.9582 6.94928 17.8759C6.77575 17.7935 6.62287 17.6734 6.50187 17.5242L0.292457 9.81069C0.10337 9.58065 0 9.29211 0 8.99433C0 8.69656 0.10337 8.40802 0.292457 8.17798L6.72042 0.464424C6.93864 0.201884 7.25221 0.0367824 7.59215 0.00543999C7.9321 -0.0259024 8.27057 0.0790816 8.53311 0.297296C8.79565 0.515511 8.96075 0.829082 8.99209 1.16903C9.02343 1.50897 8.91845 1.84744 8.70024 2.10998L2.95363 9.00076L8.5074 15.8915C8.6646 16.0802 8.76446 16.31 8.79516 16.5537C8.82586 16.7974 8.78612 17.0448 8.68062 17.2666C8.57513 17.4884 8.40832 17.6753 8.19991 17.8053C7.9915 17.9352 7.75023 18.0028 7.50463 17.9999Z" fill="#202D59"/>
</svg>
