<svg width="8" height="15" viewBox="0 0 8 15" fill="none" xmlns="http://www.w3.org/2000/svg">
<path d="M6.05751 14.0292C6.29116 14.0297 6.51759 13.9483 6.69751 13.7992C6.79876 13.7153 6.88247 13.6122 6.94382 13.4958C7.00517 13.3795 7.04297 13.2522 7.05504 13.1212C7.06712 12.9902 7.05324 12.8582 7.01419 12.7326C6.97515 12.607 6.91171 12.4903 6.82751 12.3892L2.34751 7.02924L6.6675 1.65924C6.75057 1.55695 6.8126 1.43925 6.85003 1.31291C6.88747 1.18657 6.89956 1.05408 6.88562 0.923055C6.87168 0.792027 6.83198 0.665045 6.76881 0.549408C6.70564 0.433772 6.62023 0.33176 6.51751 0.249237C6.41404 0.158201 6.29287 0.0895333 6.16161 0.0475443C6.03035 0.00555526 5.89182 -0.00884844 5.75473 0.00523645C5.61764 0.0193213 5.48494 0.0615911 5.36495 0.129393C5.24497 0.197195 5.1403 0.289065 5.05751 0.399237L0.227505 6.39924C0.0804234 6.57817 1.7643e-05 6.80261 1.7643e-05 7.03424C1.7643e-05 7.26586 0.0804234 7.4903 0.227505 7.66924L5.22751 13.6692C5.32782 13.7903 5.45526 13.8859 5.59947 13.9485C5.74368 14.011 5.9006 14.0387 6.05751 14.0292Z" fill="white"/>
</svg>
