<svg width="12" height="12" viewBox="0 0 12 12" fill="none" xmlns="http://www.w3.org/2000/svg">
<path d="M8.99988 6C7.34288 6 5.99988 7.343 5.99988 9C5.99988 10.657 7.34288 12 8.99988 12C10.6569 12 11.9999 10.657 11.9999 9C11.9999 7.343 10.6569 6 8.99988 6ZM10.6504 9.9675C10.5739 10.5075 10.0964 10.9 9.55088 10.9H9.41088V11.104C9.41088 11.3225 9.23438 11.5 9.01588 11.5H9.00588C8.78788 11.5 8.61138 11.322 8.61138 11.104V10.9H8.51138C8.15588 10.9 7.83738 10.7375 7.62638 10.4835C7.41738 10.2315 7.59488 9.8505 7.92238 9.8505C8.03588 9.8505 8.17738 9.904 8.25438 9.9875C8.31838 10.057 8.41038 10.1005 8.51188 10.1005H9.56338C9.70238 10.1005 9.82938 10.007 9.85638 9.8705C9.88788 9.7115 9.78338 9.563 9.63088 9.532L8.23538 9.2525C7.67938 9.141 7.29138 8.612 7.37288 8.033C7.44888 7.493 7.92688 7.1 8.47238 7.1H8.61238V6.9C8.61238 6.679 8.79138 6.5 9.01238 6.5C9.23338 6.5 9.41238 6.679 9.41238 6.9V7.1H9.51238C9.86788 7.1 10.1864 7.262 10.3974 7.5165C10.6064 7.7685 10.4289 8.1495 10.1014 8.1495C9.98788 8.1495 9.84638 8.096 9.76938 8.0125C9.70538 7.943 9.61338 7.8995 9.51188 7.8995H8.46088C8.32188 7.8995 8.19488 7.9925 8.16738 8.1285C8.13538 8.2875 8.24038 8.437 8.39188 8.4675L9.78788 8.747C10.3439 8.858 10.7324 9.389 10.6504 9.9675ZM11.9999 1V3C11.9999 3.276 11.7764 3.5 11.4999 3.5C11.2234 3.5 10.9999 3.276 10.9999 3V1.707L8.96888 3.738C8.29688 4.41 7.20338 4.4105 6.53138 3.738L5.26188 2.469C4.97988 2.187 4.52038 2.187 4.23788 2.469L0.853381 5.8535C0.755881 5.951 0.627881 6 0.499881 6C0.371881 6 0.243881 5.951 0.146381 5.8535C-0.0491191 5.658 -0.0491191 5.342 0.146381 5.1465L3.53088 1.762C4.20288 1.0895 5.29688 1.0895 5.96888 1.762L7.23838 3.031C7.52088 3.314 7.98038 3.3125 8.26188 3.031L10.2929 1H8.99988C8.72338 1 8.49988 0.776 8.49988 0.5C8.49988 0.224 8.72338 0 8.99988 0H10.9999C11.5514 0 11.9999 0.4485 11.9999 1ZM1.49988 7.5V11.5C1.49988 11.7765 1.27588 12 0.999881 12C0.723881 12 0.499881 11.7765 0.499881 11.5V7.5C0.499881 7.2235 0.723881 7 0.999881 7C1.27588 7 1.49988 7.2235 1.49988 7.5ZM3.99988 5.25V11.5C3.99988 11.7765 3.77588 12 3.49988 12C3.22388 12 2.99988 11.7765 2.99988 11.5V5.25C2.99988 4.974 3.22388 4.75 3.49988 4.75C3.77588 4.75 3.99988 4.974 3.99988 5.25ZM5.99988 6.5C5.72388 6.5 5.49988 6.276 5.49988 6V5C5.49988 4.724 5.72388 4.5 5.99988 4.5C6.27588 4.5 6.49988 4.724 6.49988 5V6C6.49988 6.276 6.27588 6.5 5.99988 6.5Z" fill="#E53935"/>
</svg>
