<svg width="14" height="14" viewBox="0 0 14 14" fill="none" xmlns="http://www.w3.org/2000/svg">
<path d="M13.6568 5.35214C13.6568 5.1928 13.5946 5.03623 13.4775 4.91904L8.73777 0.179312C8.49861 -0.0597707 8.11102 -0.0597707 7.87187 0.179312C7.63286 0.418544 7.63301 0.806129 7.87187 1.04521L11.5665 4.73975H0.612243C0.274134 4.73975 0 5.01388 0 5.35199C0 5.6901 0.274134 5.96423 0.612243 5.96423H13.0445C13.2921 5.96423 13.5154 5.81506 13.6102 5.58629C13.6415 5.51058 13.6568 5.43099 13.6568 5.35214Z" fill="white"/>
<path d="M13.6568 8.64789C13.6568 8.30978 13.3827 8.03564 13.0446 8.03564H0.612264C0.364662 8.03564 0.141423 8.18482 0.0466571 8.41359C-0.0481838 8.64243 0.00428141 8.90573 0.179315 9.08084L4.91904 13.8206C5.1582 14.0596 5.54578 14.0596 5.78494 13.8206C6.0241 13.5814 6.02395 13.1938 5.78494 12.9547L2.09033 9.26013H13.0446C13.3827 9.26013 13.6568 8.986 13.6568 8.64789Z" fill="white"/>
</svg>
