<svg width="14" height="14" viewBox="0 0 14 14" fill="none" xmlns="http://www.w3.org/2000/svg">
<path d="M13.6568 5.35214C13.6568 5.1928 13.5946 5.03623 13.4775 4.91904L8.73777 0.179312C8.49861 -0.0597707 8.11102 -0.0597707 7.87187 0.179312C7.63286 0.418544 7.63301 0.806129 7.87187 1.04521L11.5665 4.73975H0.612243C0.274134 4.73975 0 5.01388 0 5.35199C0 5.6901 0.274134 5.96423 0.612243 5.96423H13.0445C13.2921 5.96423 13.5154 5.81506 13.6102 5.58629C13.6415 5.51058 13.6568 5.43099 13.6568 5.35214Z" fill="black"/>
<path d="M13.6568 8.64801C13.6568 8.3099 13.3827 8.03577 13.0446 8.03577H0.612264C0.364662 8.03577 0.141423 8.18494 0.0466571 8.41371C-0.0481838 8.64255 0.00428141 8.90585 0.179315 9.08096L4.91904 13.8207C5.1582 14.0598 5.54578 14.0598 5.78494 13.8207C6.0241 13.5815 6.02395 13.1939 5.78494 12.9548L2.09033 9.26025H13.0446C13.3827 9.26025 13.6568 8.98612 13.6568 8.64801Z" fill="black"/>
</svg>
