<svg width="18" height="18" viewBox="0 0 18 18" fill="none" xmlns="http://www.w3.org/2000/svg">
<g clip-path="url(#clip0_5428_595)">
<path d="M14.25 0H7.5C5.43225 0 3.75 1.68225 3.75 3.75V4.5H3.375C1.51425 4.5 0 6.01425 0 7.875V15.375C0 16.8218 1.17675 17.9993 2.62425 18H14.25C16.3177 18 18 16.3177 18 14.25V3.75C18 1.68225 16.3177 0 14.25 0ZM3.75 15.375C3.75 15.9952 3.24525 16.5 2.625 16.5C2.00475 16.5 1.5 15.9952 1.5 15.375V7.875C1.5 6.8415 2.3415 6 3.375 6H3.75V15.375ZM16.5 14.25C16.5 15.4905 15.4905 16.5 14.25 16.5H4.9965C5.1585 16.1588 5.25 15.7778 5.25 15.375V3.75C5.25 2.5095 6.2595 1.5 7.5 1.5H14.25C15.4905 1.5 16.5 2.5095 16.5 3.75V14.25ZM15 5.25C15 5.664 14.664 6 14.25 6H12C11.586 6 11.25 5.664 11.25 5.25C11.25 4.836 11.586 4.5 12 4.5H14.25C14.664 4.5 15 4.836 15 5.25ZM15 8.25C15 8.664 14.664 9 14.25 9H7.5C7.086 9 6.75 8.664 6.75 8.25C6.75 7.836 7.086 7.5 7.5 7.5H14.25C14.664 7.5 15 7.836 15 8.25ZM15 11.25C15 11.664 14.664 12 14.25 12H7.5C7.086 12 6.75 11.664 6.75 11.25C6.75 10.836 7.086 10.5 7.5 10.5H14.25C14.664 10.5 15 10.836 15 11.25ZM15 14.25C15 14.664 14.664 15 14.25 15H7.5C7.086 15 6.75 14.664 6.75 14.25C6.75 13.836 7.086 13.5 7.5 13.5H14.25C14.664 13.5 15 13.836 15 14.25ZM6.75 5.25V3.75C6.75 3.336 7.086 3 7.5 3H9C9.414 3 9.75 3.336 9.75 3.75V5.25C9.75 5.664 9.414 6 9 6H7.5C7.086 6 6.75 5.664 6.75 5.25Z" fill="#163B7C"/>
</g>
<defs>
<clipPath id="clip0_5428_595">
<rect width="18" height="18" fill="white"/>
</clipPath>
</defs>
</svg>
