<svg width="18" height="18" viewBox="0 0 18 18" fill="none" xmlns="http://www.w3.org/2000/svg">
<path opacity="0.7" d="M8.59052 2.48471V16.772C8.59052 17.4502 8.04154 17.9992 7.3633 17.9992C6.68506 17.9992 6.13608 17.4502 6.13608 16.772V2.48471C4.50961 2.55916 3.30612 2.76451 2.62379 2.91505C2.54116 3.35848 2.45443 3.95246 2.45443 4.50061C2.45443 5.17886 1.90546 5.72783 1.22722 5.72783C0.548975 5.72783 0 5.17886 0 4.50061C0 3.1294 0.38371 1.66329 0.400073 1.60111C0.506431 1.1994 0.809145 0.878687 1.20431 0.748602C1.29758 0.718331 3.52948 0 7.3633 0C11.1971 0 13.429 0.717513 13.5223 0.748602C13.9175 0.877869 14.2202 1.19858 14.3265 1.60111C14.3429 1.66329 14.7266 3.1294 14.7266 4.50061C14.7266 5.17886 14.1776 5.72783 13.4994 5.72783C12.8211 5.72783 12.2722 5.17886 12.2722 4.50061C12.2722 3.95246 12.1854 3.35848 12.1028 2.91505C11.4213 2.76533 10.2186 2.55916 8.59052 2.48471ZM17.7946 10.3258C17.7071 9.89382 17.3938 9.54202 16.9749 9.40457C16.8489 9.36285 15.6896 8.99959 13.9085 8.99959C12.1274 8.99959 10.9689 9.36285 10.8421 9.40457C10.4223 9.54202 10.1098 9.89382 10.0223 10.3258C9.974 10.5614 9.81774 11.3689 9.81774 11.8631C9.81774 12.5413 10.3667 13.0903 11.045 13.0903C11.7232 13.0903 12.2722 12.5413 12.2722 11.8631C12.2722 11.805 12.282 11.7052 12.2975 11.5849C12.4121 11.5653 12.5422 11.5473 12.6812 11.5301V16.7728C12.6812 17.451 13.2302 18 13.9085 18C14.5867 18 15.1357 17.451 15.1357 16.7728V11.5301C15.2748 11.5473 15.4048 11.5661 15.5194 11.5849C15.5357 11.706 15.5447 11.8058 15.5447 11.8639C15.5447 12.5422 16.0937 13.0911 16.772 13.0911C17.4502 13.0911 17.9992 12.5422 17.9992 11.8639C17.9992 11.3698 17.8429 10.5614 17.7946 10.3258Z" fill="white"/>
</svg>
