<svg width="18" height="17" viewBox="0 0 18 17" fill="none" xmlns="http://www.w3.org/2000/svg">
<path d="M17.3558 5.95421L10.2884 0.440526C9.53053 -0.146842 8.46947 -0.146842 7.73053 0.440526L0.644211 5.95421C0.227368 6.27632 0 6.76895 0 7.28053V7.98158C0 8.70158 0.587368 9.28895 1.30737 9.28895H1.97053V14.8216C1.97053 15.7311 2.70947 16.47 3.61895 16.47H7.12421C7.52211 16.47 7.86316 16.1479 7.86316 15.7311V11.1837H10.1368V15.7311C10.1368 16.1289 10.4589 16.47 10.8758 16.47H14.3811C15.2905 16.47 16.0295 15.7311 16.0295 14.8216V9.28895H16.6926C17.4126 9.28895 18 8.70158 18 7.98158V7.28053C18 6.76895 17.7537 6.27632 17.3558 5.95421ZM16.5411 7.83H15.3095C14.9116 7.83 14.5705 8.15211 14.5705 8.56895V14.8405C14.5705 14.9542 14.4758 15.03 14.3811 15.03H11.5958V10.4826C11.5958 10.0847 11.2737 9.74368 10.8568 9.74368H7.14316C6.74526 9.74368 6.40421 10.0658 6.40421 10.4826V15.03H3.61895C3.50526 15.03 3.42947 14.9353 3.42947 14.8405V8.56895C3.42947 8.17105 3.10737 7.83 2.69053 7.83H1.45895V7.28053C1.45895 7.20474 1.49684 7.1479 1.55368 7.11L8.62105 1.59632C8.84842 1.42579 9.17053 1.42579 9.39789 1.59632L16.4463 7.11C16.5032 7.1479 16.5411 7.22368 16.5411 7.28053V7.83Z" fill="#55B56C"/>
</svg>
