<svg width="18" height="18" viewBox="0 0 18 18" fill="none" xmlns="http://www.w3.org/2000/svg">
<path d="M17.811 7.9491C17.626 7.5672 17.3177 7.25885 16.9358 7.07393L2.70788 0.189104C1.7706 -0.264984 0.642734 0.126749 0.188647 1.06402C-0.0426876 1.54157 -0.0621343 2.09451 0.135132 2.58712L2.60921 8.77109L0.135132 14.9557C-0.250229 15.9258 0.223857 17.0247 1.19402 17.4101C1.41338 17.4972 1.64715 17.5425 1.8832 17.5435C2.16878 17.5435 2.45069 17.4791 2.70788 17.355L16.9358 10.4683C17.8731 10.0143 18.265 8.88641 17.811 7.9491ZM2.16039 16.2216C1.84791 16.3729 1.47198 16.2422 1.32072 15.9298C1.24363 15.7706 1.23722 15.5863 1.303 15.4221L3.7117 9.39965H16.2588L2.16039 16.2216ZM3.71174 8.1425L1.30304 2.12007C1.20278 1.88001 1.26503 1.60278 1.45828 1.42865C1.64534 1.24637 1.9278 1.20361 2.16039 1.32243L16.2588 8.1425H3.71174Z" fill="white"/>
</svg>
