<svg width="28" height="28" viewBox="0 0 28 28" fill="none" xmlns="http://www.w3.org/2000/svg">
<path d="M12.8333 11.6667V12.8333C12.8333 13.4773 12.3107 14 11.6667 14H5.83333C5.18933 14 4.66667 13.4773 4.66667 12.8333V11.6667C4.66667 11.0227 5.18933 10.5 5.83333 10.5H11.6667C12.3107 10.5 12.8333 11.0227 12.8333 11.6667ZM28 7.58333V19.8333C28 20.2498 27.7783 20.636 27.4167 20.8437C27.0562 21.0513 26.6117 21.0513 26.2512 20.8437L23.7195 19.3853L21.658 20.7958C21.4573 20.9335 21.2275 21 21.0012 21C20.629 21 20.2627 20.8227 20.0375 20.4913C19.6735 19.9605 19.81 19.2348 20.342 18.8697L23.0078 17.045C23.3753 16.7918 23.8607 16.772 24.248 16.9972L25.6667 17.8138V7.58333C25.6667 4.68883 23.3112 2.33333 20.4167 2.33333C17.7928 2.33333 15.6368 4.228 15.2472 6.78417C16.6052 7.73383 17.5 9.30417 17.5 11.0833V22.75C17.5 25.6445 15.1445 28 12.25 28H5.25C2.3555 28 0 25.6445 0 22.75V11.0833C0 9.26683 0.9275 7.665 2.33333 6.72233V5.83333C2.33333 2.61683 4.95017 0 8.16667 0H20.4167C24.598 0 28 3.402 28 7.58333ZM15.1667 11.0833C15.1667 9.4745 13.8588 8.16667 12.25 8.16667H5.25C3.64117 8.16667 2.33333 9.4745 2.33333 11.0833V22.75C2.33333 24.3588 3.64117 25.6667 5.25 25.6667H12.25C13.8588 25.6667 15.1667 24.3588 15.1667 22.75V11.0833ZM13.0247 5.9115C13.3315 4.53133 14.0012 3.30633 14.9322 2.33333H8.16667C6.237 2.33333 4.66667 3.90367 4.66667 5.83333V5.89283C4.86033 5.87067 5.0505 5.83333 5.25 5.83333H12.25C12.5148 5.83333 12.7703 5.873 13.0247 5.9115ZM11.6667 16.3333H10.5C9.85483 16.3333 9.33333 16.8548 9.33333 17.5C9.33333 18.1452 9.85483 18.6667 10.5 18.6667H11.6667C12.3118 18.6667 12.8333 18.1452 12.8333 17.5C12.8333 16.8548 12.3118 16.3333 11.6667 16.3333ZM11.6667 21H10.5C9.85483 21 9.33333 21.5215 9.33333 22.1667C9.33333 22.8118 9.85483 23.3333 10.5 23.3333H11.6667C12.3118 23.3333 12.8333 22.8118 12.8333 22.1667C12.8333 21.5215 12.3118 21 11.6667 21ZM7 16.3333H5.83333C5.18817 16.3333 4.66667 16.8548 4.66667 17.5C4.66667 18.1452 5.18817 18.6667 5.83333 18.6667H7C7.64517 18.6667 8.16667 18.1452 8.16667 17.5C8.16667 16.8548 7.64517 16.3333 7 16.3333ZM7 21H5.83333C5.18817 21 4.66667 21.5215 4.66667 22.1667C4.66667 22.8118 5.18817 23.3333 5.83333 23.3333H7C7.64517 23.3333 8.16667 22.8118 8.16667 22.1667C8.16667 21.5215 7.64517 21 7 21Z" fill="#BABECC"/>
</svg>
