<svg width="12" height="12" viewBox="0 0 12 12" fill="none" xmlns="http://www.w3.org/2000/svg">
<path d="M8.251 6.99987C7.837 6.99987 7.501 6.66387 7.501 6.24987C7.501 5.83587 7.837 5.49987 8.251 5.49987C8.665 5.49987 9.001 5.83587 9.001 6.24987C9.001 6.66387 8.665 6.99987 8.251 6.99987ZM11.217 5.52287C11.048 5.09937 10.805 4.70437 10.501 4.35887V2.50187C10.501 2.19287 10.362 1.90537 10.119 1.71337C9.8795 1.52437 9.573 1.45537 9.278 1.52637C8.744 1.65387 8.007 2.06887 7.533 3.32287C7.4355 3.58137 7.5655 3.86987 7.824 3.96737C8.0805 4.06487 8.371 3.93537 8.4685 3.67637C8.7245 2.99937 9.075 2.60287 9.5005 2.50187V4.55487C9.5005 4.68537 9.552 4.81087 9.643 4.90437C9.9845 5.25337 10.237 5.68137 10.3745 6.14237C10.4375 6.35437 10.6325 6.49987 10.8535 6.49987H11.0005V7.49987H10.8535C10.6325 7.49987 10.4375 7.64537 10.3745 7.85737C10.135 8.66087 9.5555 9.33337 8.785 9.70137C8.611 9.78437 8.5005 9.95987 8.5005 10.1524V10.4994C8.5005 10.7754 8.2765 10.9994 8.0005 10.9994C7.7245 10.9994 7.5005 10.7754 7.5005 10.4994C7.5005 10.2234 7.277 9.99937 7.0005 9.99937H5.0005C4.7245 9.99937 4.5005 10.2229 4.5005 10.4994C4.5005 10.7759 4.276 10.9994 4.0005 10.9994C3.725 10.9994 3.5005 10.7754 3.5005 10.4994V10.1579C3.5005 9.96487 3.3895 9.78937 3.2155 9.70637C2.0975 9.17487 1.427 8.03287 1.507 6.79887C1.554 6.06837 1.8845 5.38137 2.4365 4.86437C2.638 4.67587 2.6485 4.35937 2.4595 4.15737C2.271 3.95637 1.9545 3.94587 1.7525 4.13437C1.6345 4.24487 1.527 4.36287 1.425 4.48437C1.1865 4.44687 1 4.24887 1 3.99937C1 3.72387 1.2245 3.49937 1.5 3.49937C1.7755 3.49937 2 3.27537 2 2.99937C2 2.72337 1.776 2.49937 1.5 2.49937C0.673 2.49937 0 3.17237 0 3.99937C0 4.59887 0.356 5.11337 0.8655 5.35337C0.663 5.78587 0.54 6.25237 0.5085 6.73437C0.409 8.27137 1.1825 9.70087 2.5 10.4599V10.4994C2.5 11.3264 3.173 11.9994 4 11.9994C4.652 11.9994 5.208 11.5814 5.4145 10.9994H6.5855C6.792 11.5814 7.348 11.9994 8 11.9994C8.827 11.9994 9.5 11.3264 9.5 10.4994V10.4534C10.28 10.0019 10.8855 9.30337 11.216 8.47637C11.6265 8.38887 12 8.05237 12 7.49937V6.49937C12 5.94637 11.6265 5.60987 11.216 5.52237L11.217 5.52287ZM2.5435 1.80937C2.707 0.957369 3.3815 0.254869 4.221 0.0608687C4.907 -0.0981312 5.6095 0.0578687 6.15 0.487869C6.6905 0.917869 7.0005 1.55987 7.0005 2.24987C7.0005 3.10987 6.5175 3.88037 5.7405 4.26187L5.7505 4.74987C5.7505 5.16337 5.414 5.49987 5.0005 5.49987H4.5005C4.073 5.49987 3.7505 5.15237 3.7505 4.69137V4.25337C2.8355 3.80537 2.3485 2.82087 2.543 1.80987L2.5435 1.80937ZM4.198 3.36187C4.273 3.39887 4.339 3.44737 4.4005 3.49937H5.102C5.163 3.44737 5.228 3.39887 5.3015 3.36337C5.733 3.15187 6.001 2.72487 6.001 2.24937C6.001 1.86587 5.8285 1.50937 5.528 1.27037C5.3035 1.09187 5.036 0.999369 4.7535 0.999369C4.6525 0.999369 4.5495 1.01087 4.446 1.03487C3.9855 1.14137 3.6155 1.52837 3.525 1.99737C3.4 2.64887 3.7725 3.15187 4.1975 3.36187H4.198Z" fill="#55B56C"/>
</svg>
