<svg width="18" height="18" viewBox="0 0 18 18" fill="none" xmlns="http://www.w3.org/2000/svg">
<g opacity="0.7">
<path d="M9.93286 15.75C13.6608 15.75 16.6829 12.7279 16.6829 9C16.6829 5.27208 13.6608 2.25 9.93286 2.25C6.20494 2.25 3.18286 5.27208 3.18286 9C3.18286 12.7279 6.20494 15.75 9.93286 15.75Z" stroke="white" stroke-width="1.5"/>
<path d="M7.68286 6.75C7.68286 5.50736 8.69022 4.5 9.93286 4.5C11.1755 4.5 12.1829 5.50736 12.1829 6.75C12.1829 8.02243 11.1305 9 9.93286 9C9.93286 9 9.93286 9.75 9.93286 10.5" stroke="white" stroke-width="1.5" stroke-linecap="round"/>
<path d="M9.93286 12.9375C10.2435 12.9375 10.4954 12.6857 10.4954 12.375C10.4954 12.0643 10.2435 11.8125 9.93286 11.8125C9.6222 11.8125 9.37036 12.0643 9.37036 12.375C9.37036 12.6857 9.6222 12.9375 9.93286 12.9375Z" fill="white"/>
</g>
</svg>
