<svg width="11" height="12" viewBox="0 0 11 12" fill="none" xmlns="http://www.w3.org/2000/svg">
<path d="M9.03614 8.48193C8.57831 8.48193 8.16867 8.66265 7.85542 8.94578L3.56024 6.44578C3.59036 6.30723 3.61446 6.16868 3.61446 6.0241C3.61446 5.87952 3.59036 5.74096 3.56024 5.60241L7.80723 3.12651C8.13253 3.42771 8.56024 3.61446 9.03614 3.61446C10.0361 3.61446 10.8434 2.80723 10.8434 1.80723C10.8434 0.807229 10.0361 0 9.03614 0C8.03614 0 7.22892 0.807229 7.22892 1.80723C7.22892 1.95181 7.25301 2.09036 7.28313 2.22892L3.03614 4.70482C2.71084 4.40361 2.28313 4.21687 1.80723 4.21687C0.807229 4.21687 0 5.0241 0 6.0241C0 7.0241 0.807229 7.83133 1.80723 7.83133C2.28313 7.83133 2.71084 7.64458 3.03614 7.34337L7.3253 9.8494C7.29518 9.9759 7.27711 10.1084 7.27711 10.241C7.27711 11.2108 8.06627 12 9.03614 12C10.006 12 10.7952 11.2108 10.7952 10.241C10.7952 9.27108 10.006 8.48193 9.03614 8.48193Z" fill="#151515"/>
</svg>
