<svg width="18" height="18" viewBox="0 0 18 18" fill="none" xmlns="http://www.w3.org/2000/svg">
<g clip-path="url(#clip0_5428_1265)">
<path d="M9.393 11.25C9.59191 11.25 9.78268 11.329 9.92333 11.4697C10.064 11.6103 10.143 11.8011 10.143 12V14.25C10.143 14.8467 10.3801 15.419 10.802 15.841C11.224 16.2629 11.7963 16.5 12.393 16.5H14.25C14.8467 16.5 15.419 16.2629 15.841 15.841C16.2629 15.419 16.5 14.8467 16.5 14.25V3.75C16.5 3.15326 16.2629 2.58097 15.841 2.15901C15.419 1.73705 14.8467 1.5 14.25 1.5H12.393C11.7963 1.5 11.224 1.73705 10.802 2.15901C10.3801 2.58097 10.143 3.15326 10.143 3.75V6C10.143 6.19891 10.064 6.38968 9.92333 6.53033C9.78268 6.67098 9.59191 6.75 9.393 6.75C9.19409 6.75 9.00332 6.67098 8.86267 6.53033C8.72202 6.38968 8.643 6.19891 8.643 6V3.75C8.64419 2.7558 9.03966 1.80267 9.74267 1.09966C10.4457 0.396661 11.3988 0.00119089 12.393 0H14.25C15.2442 0.00119089 16.1973 0.396661 16.9003 1.09966C17.6033 1.80267 17.9988 2.7558 18 3.75V14.25C17.9988 15.2442 17.6033 16.1973 16.9003 16.9003C16.1973 17.6033 15.2442 17.9988 14.25 18H12.393C11.3988 17.9988 10.4457 17.6033 9.74267 16.9003C9.03966 16.1973 8.64419 15.2442 8.643 14.25V12C8.643 11.8011 8.72202 11.6103 8.86267 11.4697C9.00332 11.329 9.19409 11.25 9.393 11.25Z" fill="#163B7C"/>
<path d="M0.84975 7.40919L4.28925 3.96969C4.35843 3.89806 4.44119 3.84092 4.5327 3.80161C4.6242 3.76231 4.72261 3.74162 4.8222 3.74075C4.92178 3.73989 5.02054 3.75886 5.11271 3.79657C5.20489 3.83428 5.28863 3.88997 5.35905 3.96039C5.42947 4.03081 5.48516 4.11455 5.52287 4.20672C5.56058 4.2989 5.57955 4.39766 5.57869 4.49724C5.57782 4.59682 5.55713 4.69524 5.51783 4.78674C5.47852 4.87825 5.42138 4.961 5.34975 5.03019L2.15325 8.22744L13.5 8.24994C13.6989 8.24994 13.8897 8.32896 14.0303 8.46961C14.171 8.61026 14.25 8.80103 14.25 8.99994C14.25 9.19885 14.171 9.38962 14.0303 9.53027C13.8897 9.67092 13.6989 9.74994 13.5 9.74994L2.109 9.72669L5.35125 12.9697C5.42288 13.0389 5.48002 13.1216 5.51933 13.2131C5.55863 13.3046 5.57932 13.4031 5.58019 13.5026C5.58105 13.6022 5.56208 13.701 5.52437 13.7932C5.48666 13.8853 5.43097 13.9691 5.36055 14.0395C5.29013 14.1099 5.20639 14.1656 5.11422 14.2033C5.02204 14.241 4.92328 14.26 4.8237 14.2591C4.72411 14.2583 4.6257 14.2376 4.5342 14.1983C4.44269 14.159 4.35994 14.1018 4.29075 14.0302L0.85125 10.5907C0.429241 10.169 0.192011 9.59687 0.19173 9.00025C0.191449 8.40363 0.428139 7.83133 0.84975 7.40919Z" fill="#163B7C"/>
</g>
<defs>
<clipPath id="clip0_5428_1265">
<rect width="18" height="18" fill="white" transform="matrix(-1 0 0 1 18 0)"/>
</clipPath>
</defs>
</svg>
