<svg width="19" height="18" viewBox="0 0 19 18" fill="none" xmlns="http://www.w3.org/2000/svg">
<g opacity="0.7">
<path d="M17.9501 5.30514C17.8993 5.18385 17.8251 5.07378 17.7317 4.98124C17.6383 4.8887 17.5276 4.81552 17.4058 4.76589L14.4699 3.54758L13.2566 0.616659C13.2063 0.495192 13.1325 0.384849 13.0395 0.29196C12.9465 0.199071 12.836 0.125465 12.7145 0.0753635C12.5929 0.0252623 12.4627 -0.000347531 12.3312 3.56156e-06C12.1998 0.000354655 12.0697 0.0266597 11.9484 0.0774094L9.01248 1.29072L6.07657 0.0774094C5.95529 0.0266597 5.82519 0.000354655 5.69373 3.56156e-06C5.56227 -0.000347531 5.43203 0.0252623 5.31049 0.0753635C5.18895 0.125465 5.07849 0.199071 4.98547 0.29196C4.89244 0.384849 4.81867 0.495192 4.76838 0.616659L3.55507 3.54758L0.619155 4.76589C0.49785 4.81572 0.387548 4.88896 0.294547 4.98142C0.201546 5.07388 0.127668 5.18375 0.0771298 5.30476C0.026592 5.42578 0.000384733 5.55556 4.20439e-06 5.6867C-0.000376325 5.81784 0.0250773 5.94777 0.074912 6.06908L1.29322 9L0.074912 11.9309C0.0250773 12.0522 -0.000376325 12.1822 4.20439e-06 12.3133C0.000384733 12.4444 0.026592 12.5742 0.0771298 12.6952C0.127668 12.8162 0.201546 12.9261 0.294547 13.0186C0.387548 13.111 0.49785 13.1843 0.619155 13.2341L3.55507 14.4524L4.76838 17.3833C4.81867 17.5048 4.89244 17.6151 4.98547 17.708C5.07849 17.8009 5.18895 17.8745 5.31049 17.9246C5.43203 17.9747 5.56227 18.0003 5.69373 18C5.82519 17.9996 5.95529 17.9733 6.07657 17.9226L9.01248 16.7093L11.9484 17.9226C12.0706 17.9718 12.2011 17.9973 12.3329 17.9975C12.5303 17.9979 12.7234 17.9398 12.8878 17.8305C13.0522 17.7212 13.1806 17.5656 13.2566 17.3833L14.4699 14.4524L17.4058 13.2341C17.5271 13.1843 17.6374 13.111 17.7304 13.0186C17.8234 12.9261 17.8973 12.8162 17.9478 12.6952C17.9984 12.5742 18.0246 12.4444 18.025 12.3133C18.0253 12.1822 17.9999 12.0522 17.9501 11.9309L16.7317 9L17.9501 6.06908C18.0513 5.82449 18.0513 5.54972 17.9501 5.30514ZM14.7295 9.38447L15.7281 11.7711L13.3365 12.7698C13.2147 12.8194 13.104 12.8926 13.0106 12.9851C12.9172 13.0777 12.843 13.1877 12.7922 13.309L11.7936 15.7007L9.39195 14.7021C9.14883 14.6022 8.87613 14.6022 8.63301 14.7021L6.23135 15.7007L5.23274 13.309C5.18199 13.1877 5.10778 13.0777 5.01439 12.9851C4.92099 12.8926 4.81024 12.8194 4.6885 12.7698L2.29682 11.7711L3.29543 9.38447C3.34625 9.26266 3.37241 9.13198 3.37241 9C3.37241 8.86802 3.34625 8.73734 3.29543 8.61553L2.29682 6.22885L4.6885 5.23024C4.81024 5.18061 4.92099 5.10743 5.01439 5.01489C5.10778 4.92235 5.18199 4.81228 5.23274 4.69099L6.23135 2.29932L8.63301 3.29793C8.87613 3.39781 9.14883 3.39781 9.39195 3.29793L11.7936 2.29932L12.7922 4.69099C12.843 4.81228 12.9172 4.92235 13.0106 5.01489C13.104 5.10743 13.2147 5.18061 13.3365 5.23024L15.7281 6.22885L14.7295 8.61553C14.6787 8.73734 14.6526 8.86802 14.6526 9C14.6526 9.13198 14.6787 9.26266 14.7295 9.38447Z" fill="white"/>
<path d="M9.0126 4.50635C8.74776 4.50635 8.49375 4.61156 8.30648 4.79883C8.1192 4.98611 8.01399 5.24011 8.01399 5.50496V12.4952C8.01399 12.7601 8.1192 13.0141 8.30648 13.2014C8.49375 13.3886 8.74776 13.4938 9.0126 13.4938C10.2044 13.4938 11.3474 13.0204 12.1902 12.1777C13.0329 11.3349 13.5064 10.1919 13.5064 9.0001C13.5064 7.80828 13.0329 6.66528 12.1902 5.82254C11.3474 4.9798 10.2044 4.50635 9.0126 4.50635ZM10.0112 11.2869V6.71328C10.4557 6.90794 10.8338 7.2279 11.0993 7.63404C11.3648 8.04017 11.5062 8.51488 11.5062 9.0001C11.5062 9.48532 11.3648 9.96002 11.0993 10.3662C10.8338 10.7723 10.4557 11.0923 10.0112 11.2869Z" fill="white"/>
</g>
</svg>
