<svg width="15" height="15" viewBox="0 0 15 15" fill="none" xmlns="http://www.w3.org/2000/svg">
<path fill-rule="evenodd" clip-rule="evenodd" d="M13 3.87489C13.0452 3.91674 13.0816 3.96708 13.1073 4.02303C13.133 4.07898 13.1474 4.13944 13.1498 4.20096C13.1521 4.26248 13.1423 4.32386 13.1209 4.38158C13.0995 4.43931 13.0669 4.49225 13.025 4.53739L6.93128 11.0999C6.88644 11.1482 6.83193 11.1864 6.77131 11.2122C6.71068 11.238 6.6453 11.2507 6.57943 11.2496C6.51355 11.2484 6.44867 11.2333 6.389 11.2054C6.32934 11.1774 6.27623 11.1372 6.23315 11.0874L3.26441 7.64989C3.19198 7.5546 3.15858 7.43529 3.171 7.31625C3.18343 7.1972 3.24074 7.08736 3.33129 7.00908C3.42183 6.9308 3.5388 6.88996 3.65839 6.89487C3.77798 6.89978 3.89121 6.95007 3.97503 7.03551L6.60003 10.0793L12.3375 3.89801C12.3794 3.85291 12.4298 3.8165 12.4858 3.79087C12.5417 3.76523 12.6022 3.75087 12.6637 3.74861C12.7253 3.74634 12.7866 3.75622 12.8443 3.77767C12.902 3.79913 12.9549 3.83174 13 3.87364V3.87489Z" fill="#55B56C"/>
</svg>
