<svg width="10" height="10" viewBox="0 0 10 10" fill="none" xmlns="http://www.w3.org/2000/svg">
<path d="M9.86659 1.04548C9.82438 1.00322 9.77425 0.969692 9.71907 0.946818C9.66389 0.923944 9.60475 0.91217 9.54501 0.91217C9.48528 0.91217 9.42614 0.923944 9.37096 0.946818C9.31578 0.969692 9.26565 1.00322 9.22343 1.04548L4.99971 5.2692L3.50317 3.77266C3.41788 3.68737 3.30221 3.63946 3.18159 3.63946C3.06097 3.63946 2.9453 3.68737 2.86001 3.77266C2.77472 3.85795 2.72681 3.97362 2.72681 4.09424C2.72681 4.21486 2.77472 4.33053 2.86001 4.41582L4.67813 6.23394C4.72034 6.2762 4.77047 6.30973 4.82565 6.3326C4.88083 6.35548 4.93998 6.36725 4.99971 6.36725C5.05944 6.36725 5.11859 6.35548 5.17377 6.3326C5.22895 6.30973 5.27908 6.2762 5.32129 6.23394L9.86659 1.68864C9.90886 1.64642 9.94238 1.5963 9.96526 1.54112C9.98813 1.48594 9.9999 1.42679 9.9999 1.36706C9.9999 1.30733 9.98813 1.24818 9.96526 1.193C9.94238 1.13782 9.90886 1.08769 9.86659 1.04548Z" fill="#55B56C"/>
<path d="M9.89968 4.00107C9.88774 3.94258 9.8644 3.887 9.83098 3.83753C9.79757 3.78805 9.75473 3.74565 9.70493 3.71272C9.65513 3.6798 9.59932 3.65701 9.54071 3.64566C9.4821 3.6343 9.42183 3.6346 9.36333 3.64654C9.30483 3.65848 9.24926 3.68182 9.19979 3.71523C9.15031 3.74865 9.1079 3.79148 9.07498 3.84128C9.04206 3.89109 9.01927 3.94689 9.00792 4.0055C8.99656 4.06411 8.99686 4.12439 9.0088 4.18288C9.19608 5.09741 9.06494 6.04848 8.63715 6.8782C8.20937 7.70791 7.51068 8.36636 6.65707 8.74423C5.80346 9.1221 4.84629 9.19665 3.94447 8.95551C3.04265 8.71437 2.25043 8.17204 1.69934 7.41857C1.14824 6.66509 0.871428 5.7458 0.914847 4.8133C0.958266 3.88081 1.31931 2.99122 1.93803 2.29221C2.55676 1.59321 3.39595 1.12684 4.31627 0.970548C5.2366 0.814251 6.1827 0.977424 6.9975 1.43298C7.10298 1.49204 7.22761 1.50679 7.34396 1.47397C7.40157 1.45772 7.45542 1.43029 7.50243 1.39323C7.54944 1.35617 7.58869 1.31021 7.61793 1.25798C7.64718 1.20575 7.66586 1.14827 7.67289 1.08883C7.67993 1.02938 7.67518 0.969135 7.65893 0.911522C7.64268 0.853909 7.61524 0.800061 7.57818 0.753053C7.54112 0.706044 7.49517 0.666795 7.44294 0.637547C6.48522 0.101177 5.3776 -0.105113 4.291 0.0505089C3.2044 0.206131 2.19921 0.715016 1.43054 1.49864C0.661867 2.28226 0.172438 3.29707 0.0377739 4.38646C-0.09689 5.47586 0.130696 6.5793 0.685413 7.52651C1.24013 8.47372 2.09115 9.21206 3.10715 9.62759C4.12315 10.0431 5.24766 10.1128 6.30716 9.82574C7.36666 9.53872 8.30226 8.91101 8.9696 8.03947C9.63693 7.16793 9.99891 6.101 9.99967 5.00331C9.9995 4.66675 9.96601 4.33103 9.89968 4.00107Z" fill="#55B56C"/>
</svg>
