<svg width="24" height="24" viewBox="0 0 24 24" fill="none" xmlns="http://www.w3.org/2000/svg">
<path d="M21.44 11.05L12.25 20.24C11.1242 21.3658 9.59723 21.9983 8.005 21.9983C6.41277 21.9983 4.88584 21.3658 3.76 20.24C2.63416 19.1142 2.00166 17.5872 2.00166 15.995C2.00166 14.4028 2.63416 12.8758 3.76 11.75L12.33 3.18C13.0806 2.42975 14.0991 2.00712 15.16 2.00712C16.2209 2.00712 17.2394 2.42975 17.99 3.18C18.7403 3.93064 19.1629 4.94913 19.1629 6.01C19.1629 7.07087 18.7403 8.08936 17.99 8.84L9.41 17.41C9.03472 17.7853 8.52573 17.9966 7.995 17.9966C7.46427 17.9966 6.95528 17.7853 6.58 17.41C6.20472 17.0347 5.99341 16.5257 5.99341 15.995C5.99341 15.4643 6.20472 14.9553 6.58 14.58L15.07 6.1" stroke="#9CA3AF" stroke-width="2" stroke-linecap="round" stroke-linejoin="round"/>
</svg>
